<?xml version="1.0" encoding="UTF-8" standalone="no"?>
<svg width="512px" height="512px" viewBox="0 0 512 512" version="1.1" xmlns="http://www.w3.org/2000/svg" xmlns:xlink="http://www.w3.org/1999/xlink" xmlns:sketch="http://www.bohemiancoding.com/sketch/ns">
    <!-- Generator: Sketch 3.0.4 (8053) - http://www.bohemiancoding.com/sketch -->
    <title>512</title>
    <desc>Created with Sketch.</desc>
    <defs></defs>
    <g id="Page-1" stroke="none" stroke-width="1" fill="none" fill-rule="evenodd" sketch:type="MSPage">
        <g id="512" sketch:type="MSArtboardGroup" fill="#000000">
            <g id="icon_49138-2" sketch:type="MSLayerGroup" transform="translate(36.000000, 33.000000)">
                <path d="M223.034483,437.684114 C102.382966,437.684114 4.22751724,339.323795 4.22751724,218.420455 C4.22751724,97.5171136 102.382966,-0.843204545 223.034483,-0.843204545 C343.686,-0.843204545 441.841448,97.5171136 441.841448,218.420455 C441.841448,339.323795 343.686,437.684114 223.034483,437.684114 L223.034483,437.684114 Z M223.034483,9.31588636 C107.974034,9.31588636 14.3654483,103.119852 14.3654483,218.420455 C14.3654483,333.721057 107.974034,427.525023 223.034483,427.525023 C338.094931,427.525023 431.703517,333.721057 431.703517,218.420455 C431.703517,103.119852 338.094931,9.31588636 223.034483,9.31588636 L223.034483,9.31588636 Z" id="Shape" sketch:type="MSShapeGroup"></path>
                <path d="M196.239931,200.896023 L195.697552,197.127 C287.942586,183.803352 338.870483,130.96592 356.485138,108.869898 L359.455552,111.247125 C341.557034,133.693636 289.828241,187.379352 196.239931,200.896023 L196.239931,200.896023 Z" id="Shape" sketch:type="MSShapeGroup"></path>
                <ellipse id="Oval" sketch:type="MSShapeGroup" cx="196.777241" cy="197.187955" rx="14.2944828" ry="14.3243182"></ellipse>
                <ellipse id="Oval" sketch:type="MSShapeGroup" cx="358.984138" cy="110.835682" rx="14.2944828" ry="14.3243182"></ellipse>
                <path d="M141.292345,375.871125 C123.632069,353.587159 95.6108276,307.099159 106.341828,246.07858 L110.082724,246.744 C99.6102414,306.291511 127.002931,351.717886 144.262759,373.498977 L141.292345,375.871125 L141.292345,375.871125 Z" id="Shape" sketch:type="MSShapeGroup"></path>
                <ellipse id="Oval" sketch:type="MSShapeGroup" cx="110.604828" cy="247.983409" rx="14.2944828" ry="14.3243182"></ellipse>
                <ellipse id="Oval" sketch:type="MSShapeGroup" cx="141.018621" cy="374.972045" rx="14.2944828" ry="14.3243182"></ellipse>
                <path d="M367.768655,260.499409 L363.966931,260.392739 C365.295,212.772 347.127828,167.193239 312.805862,132.058023 C277.069655,95.4649773 227.185966,74.6997955 175.812,74.9994886 L175.786655,71.1898295 C228.103448,70.9866477 279.071897,92.0667614 315.522828,129.391261 C350.569655,165.27317 369.122069,211.837364 367.768655,260.499409 L367.768655,260.499409 Z" id="Shape" sketch:type="MSShapeGroup"></path>
                <ellipse id="Oval" sketch:type="MSShapeGroup" cx="364.053103" cy="258.1425" rx="14.2944828" ry="14.3243182"></ellipse>
                <ellipse id="Oval" sketch:type="MSShapeGroup" cx="176.501379" cy="75.2788636" rx="14.2944828" ry="14.3243182"></ellipse>
                <path d="M250.401828,366.037125 C135.73169,360.368352 57.9889655,285.130125 23.4642414,216.607057 C-1.91606897,166.228125 -5.88506897,117.139398 13.1083448,88.4907614 C25.3651034,70.0012159 46.4367931,61.2593182 73.9815517,63.1793864 L73.7179655,66.9788864 C47.5418276,65.1451705 27.7272414,73.3232386 16.2713793,90.5987727 C-1.96675862,118.109591 2.08841379,165.73033 26.8553793,214.89017 C60.8934828,282.458284 137.546379,356.639966 250.589379,362.227466 L250.401828,366.037125 L250.401828,366.037125 Z" id="Shape" sketch:type="MSShapeGroup"></path>
                <ellipse id="Oval" sketch:type="MSShapeGroup" cx="247.466897" cy="364.812955" rx="14.2944828" ry="14.3243182"></ellipse>
                <path d="M89.082,387.401693 C36.0910345,378.695352 0.202758621,340.38542 -2.352,289.798227 C-4.80537931,241.136182 25.0863103,183.285239 97.4001724,163.734068 L98.3886207,167.411659 C28.1226207,186.409159 -0.932689655,242.467023 1.44972414,289.605205 C3.40634483,328.382455 27.6157241,373.443102 89.7004138,383.64283 L89.082,387.401693 L89.082,387.401693 Z" id="Shape" sketch:type="MSShapeGroup"></path>
                <ellipse id="Oval" sketch:type="MSShapeGroup" cx="95.397931" cy="166.710682" rx="14.2944828" ry="14.3243182"></ellipse>
                <path d="M336.711103,444.739602 C335.06369,444.739602 333.396,444.663409 331.702966,444.505943 C299.586,441.514091 270.495207,411.783511 253.874069,364.97042 L257.457828,363.690375 C273.567,409.071034 301.451379,437.861898 332.052724,440.711523 C348.526862,442.281102 363.110276,435.626898 370.176414,423.456307 C377.490931,410.864114 375.377172,394.574011 364.372448,378.776625 L367.489862,376.59242 C379.376586,393.659693 381.546103,411.438102 373.461103,425.371295 C366.37469,437.572364 352.576966,444.739602 336.711103,444.739602 L336.711103,444.739602 Z" id="Shape" sketch:type="MSShapeGroup"></path>
                <path d="M289.275724,60.5685 L285.661552,59.3798864 C294.299069,33.133875 309.556655,16.2240682 327.531207,12.9985568 C338.596759,10.9972159 349.474759,14.7814773 355.892069,22.8427159 C362.233345,30.8074432 363.257276,41.5303636 358.710414,52.2532841 L355.217897,50.7649773 C359.202103,41.3678182 358.365724,32.0570114 352.926724,25.2199432 C347.381276,18.2558864 337.907379,15.0100568 328.205379,16.7523409 C311.645069,19.7187955 297.462103,35.6939659 289.275724,60.5685 L289.275724,60.5685 Z" id="Shape" sketch:type="MSShapeGroup"></path>
                <ellipse id="Oval" sketch:type="MSShapeGroup" cx="288.018621" cy="60.0402273" rx="14.2944828" ry="14.3243182"></ellipse>
            </g>
        </g>
    </g>
</svg>